<svg width="16" height="2" viewBox="0 0 16 2" fill="none" xmlns="http://www.w3.org/2000/svg">
<path d="M14.6667 0C6.61312 0 10.2665 0 1.33333 0C0.979711 0 0.640573 0.105357 0.390525 0.292893C0.140476 0.48043 0 0.734784 0 1C0 1.26522 0.140476 1.51957 0.390525 1.70711C0.640573 1.89464 0.979711 2 1.33333 2C9.83316 2 6.97623 2 14.6667 2C15.0203 2 15.3594 1.89464 15.6095 1.70711C15.8595 1.51957 16 1.26522 16 1C16 0.734784 15.8595 0.48043 15.6095 0.292893C15.3594 0.105357 15.0203 0 14.6667 0Z" fill="white"/>
</svg>
